<svg xmlns="http://www.w3.org/2000/svg" viewBox="0 0 48 48"><defs><linearGradient id="s" x1="0" y1="0" x2="0" y2="1"><stop stop-color="#b8ecff"/><stop offset="1" stop-color="#2ba7ef"/></linearGradient><linearGradient id="c" x1="0" y1="0" x2="0" y2="1"><stop stop-color="#e7e8ff"/><stop offset="1" stop-color="#8c8bd0"/></linearGradient></defs><path d="M5 8h27c2 0 3 1 3 3v20c0 2-1 3-3 3H5c-2 0-3-1-3-3V11c0-2 1-3 3-3z" fill="#e7e7ed" stroke="#6d6a82"/><rect x="5" y="11" width="27" height="19" rx="1" fill="url(#s)" stroke="#77758b"/><path d="M13 35h11l2 5H10z" fill="#c7c7d3" stroke="#77758b"/><ellipse cx="18" cy="41" rx="11" ry="2.2" fill="#8a899b"/><path d="M35 14h10v25H31V18z" fill="url(#c)" stroke="#686697"/><rect x="34" y="20" width="8" height="4" fill="#aaa9d4" stroke="#7473a7"/><circle cx="40" cy="35" r="1.6" fill="#7eff39"/></svg>