<svg xmlns="http://www.w3.org/2000/svg" viewBox="0 0 48 48"><defs><linearGradient id="a" x1="0" y1="0" x2="0" y2="1"><stop stop-color="#fff1a5"/><stop offset="1" stop-color="#e5a72b"/></linearGradient><radialGradient id="g"><stop stop-color="#8fd1ff"/><stop offset="1" stop-color="#2b75bd"/></radialGradient></defs><path d="M4 13c0-2 1.4-3.5 3.5-3.5H19l4 4H41c2 0 3 1.3 3 3v21c0 2-1.3 3-3 3H7c-2 0-3-1.4-3-3z" fill="url(#a)" stroke="#b97c1a"/><circle cx="31" cy="30" r="11" fill="url(#g)" stroke="#164e87"/><path d="M20 30h22M31 19c3 3 4.3 7 4.3 11S34 38 31 41M31 19c-3 3-4.3 7-4.3 11S28 38 31 41" fill="none" stroke="#e8f7ff" stroke-width="1.3"/><path d="M23 23c4 2 12 2 16 0M23 37c4-2 12-2 16 0" fill="none" stroke="#e8f7ff" stroke-width="1.2"/></svg>